<!-- src/assets/icons.svg -->
<svg xmlns="http://www.w3.org/2000/svg" style="display:none">
  <symbol id="github" viewBox="0 0 24 24">
    <path
      d="M12 0c-6.626 0-12 5.373-12 12 0 5.302 3.438 9.8 8.207 11.387.599.111.793-.261.793-.577v-2.234c-3.338.726-4.033-1.416-4.033-1.416-.546-1.387-1.333-1.756-1.333-1.756-1.089-.745.083-.729.083-.729 1.205.084 1.839 1.237 1.839 1.237 1.07 1.834 2.807 1.304 3.492.997.107-.775.418-1.305.762-1.604-2.665-.305-5.467-1.334-5.467-5.931 0-1.311.469-2.381 1.236-3.221-.124-.303-.535-1.524.117-3.176 0 0 1.008-.322 3.301 1.23.957-.266 1.983-.399 3.003-.404 1.02.005 2.047.138 3.006.404 2.291-1.552 3.297-1.23 3.297-1.23.653 1.653.242 2.874.118 3.176.77.84 1.235 1.911 1.235 3.221 0 4.609-2.807 5.624-5.479 5.921.43.372.823 1.102.823 2.222v3.293c0 .319.192.694.801.576 4.765-1.589 8.199-6.086 8.199-11.386 0-6.627-5.373-12-12-12z" />
  </symbol>

  <symbol id="linkedin" viewBox="0 0 24 24">
    <path
      d="M20.447 20.452h-3.554v-5.569c0-1.328-.475-2.236-1.986-2.236-1.081 0-1.722.735-2.004 1.446-.103.25-.129.599-.129.948v5.411h-3.554V9h3.414v1.561h.046c.477-.9 1.637-1.85 3.37-1.85 3.601 0 4.267 2.37 4.267 5.455v6.286zM5.337 7.433c-1.144 0-2.063-.931-2.063-2.065 0-1.138.92-2.063 2.063-2.063 1.14 0 2.064.925 2.064 2.063 0 1.134-.925 2.065-2.064 2.065zm1.782 13.019H3.555V9h3.564v11.452zM22.225 0H1.771C.792 0 0 .774 0 1.729v20.542C0 23.227.792 24 1.771 24h20.451C23.2 24 24 23.227 24 22.271V1.729C24 .774 23.2 0 22.225 0z" />
  </symbol>

  <symbol id="email" viewBox="0 0 24 24">
    <path
      d="M23.954,5.542,15.536,13.96a5.007,5.007,0,0,1-7.072,0L.046,5.542C.032,5.7,0,5.843,0,6V18a5.006,5.006,0,0,0,5,5H19a5.006,5.006,0,0,0,5-5V6C24,5.843,23.968,5.7,23.954,5.542Z" />
    <path
      d="M14.122,12.546l9.134-9.135A4.986,4.986,0,0,0,19,1H5A4.986,4.986,0,0,0,.744,3.411l9.134,9.135A3.007,3.007,0,0,0,14.122,12.546Z" />
  </symbol>
  <symbol id="cv" viewBox="0 0 24 24">
    <path
      d="m14 7v-6.54a6.977 6.977 0 0 1 2.465 1.59l3.484 3.486a6.954 6.954 0 0 1 1.591 2.464h-6.54a1 1 0 0 1 -1-1zm8 3.485v8.515a5.006 5.006 0 0 1 -5 5h-10a5.006 5.006 0 0 1 -5-5v-14a5.006 5.006 0 0 1 5-5h4.515c.163 0 .324.013.485.024v6.976a3 3 0 0 0 3 3h6.976c.011.161.024.322.024.485zm-8 8.515a1 1 0 0 0 -1-1h-5a1 1 0 0 0 0 2h5a1 1 0 0 0 1-1zm3-4a1 1 0 0 0 -1-1h-8a1 1 0 0 0 0 2h8a1 1 0 0 0 1-1z" />
  </symbol>

  <symbol id="menu" viewBox="0 0 24 24">
    <rect y="11" width="24" height="2" rx="1" />
    <rect y="4" width="24" height="2" rx="1" />
    <rect y="18" width="24" height="2" rx="1" />
  </symbol>

  <symbol id="cross" viewBox="0 0 24 24">
    <rect x="3" y="10.5" width="18" height="3" rx="1.5" fill="currentColor"
      transform="rotate(45 12 12)" />
    <rect x="3" y="10.5" width="18" height="3" rx="1.5" fill="currentColor"
      transform="rotate(-45 12 12)" />
  </symbol>

  <symbol id="dark-mode" viewBox="0 0 24 24">
    <path
      d="M22.386,12.003c-.402-.167-.871-.056-1.151,.28-.928,1.105-2.506,1.62-4.968,1.62-3.814,0-6.179-1.03-6.179-6.158,0-2.397,.532-4.019,1.626-4.957,.33-.283,.439-.749,.269-1.149-.17-.401-.571-.655-1.015-.604C5.285,1.573,1,6.277,1,11.978c0,6.062,4.944,10.993,11.022,10.993,5.72,0,10.438-4.278,10.973-9.951,.042-.436-.205-.848-.609-1.017Z" />
  </symbol>

  <symbol id="light-mode" viewBox="0 0 24 24">
    <path
      d="M12,17c-2.76,0-5-2.24-5-5s2.24-5,5-5,5,2.24,5,5-2.24,5-5,5Zm1-13V1c0-.55-.45-1-1-1s-1,.45-1,1v3c0,.55,.45,1,1,1s1-.45,1-1Zm0,19v-3c0-.55-.45-1-1-1s-1,.45-1,1v3c0,.55,.45,1,1,1s1-.45,1-1ZM5,12c0-.55-.45-1-1-1H1c-.55,0-1,.45-1,1s.45,1,1,1h3c.55,0,1-.45,1-1Zm19,0c0-.55-.45-1-1-1h-3c-.55,0-1,.45-1,1s.45,1,1,1h3c.55,0,1-.45,1-1ZM6.71,6.71c.39-.39,.39-1.02,0-1.41l-2-2c-.39-.39-1.02-.39-1.41,0s-.39,1.02,0,1.41l2,2c.2,.2,.45,.29,.71,.29s.51-.1,.71-.29Zm14,14c.39-.39,.39-1.02,0-1.41l-2-2c-.39-.39-1.02-.39-1.41,0s-.39,1.02,0,1.41l2,2c.2,.2,.45,.29,.71,.29s.51-.1,.71-.29Zm-16,0l2-2c.39-.39,.39-1.02,0-1.41s-1.02-.39-1.41,0l-2,2c-.39,.39-.39,1.02,0,1.41,.2,.2,.45,.29,.71,.29s.51-.1,.71-.29ZM18.71,6.71l2-2c.39-.39,.39-1.02,0-1.41s-1.02-.39-1.41,0l-2,2c-.39,.39-.39,1.02,0,1.41,.2,.2,.45,.29,.71,.29s.51-.1,.71-.29Z" />
  </symbol>

  <symbol id="arrows" viewBox="0 0 24 24">
    <g>
      <path
        d="M.44,10.982a1.5,1.5,0,0,1,2.121,0l7.671,7.672h0a2.5,2.5,0,0,0,3.536,0l7.671-7.672A1.5,1.5,0,1,1,23.561,13.1l-7.672,7.672a5.5,5.5,0,0,1-7.778,0L.439,13.1a1.5,1.5,0,0,1,0-2.118Z" />
      <path
        d="M.44,1.439a1.5,1.5,0,0,1,2.121,0l9.085,9.086h0a.5.5,0,0,0,.707,0L21.439,1.44a1.5,1.5,0,0,1,2.122,2.119L14.475,12.64a3.505,3.505,0,0,1-4.95,0L.439,3.559a1.5,1.5,0,0,1,0-2.12Z" />
    </g>
  </symbol>

  <symbol id="java" viewBox="0 0 256 346">
    <path
      d="M83 267s-14 8 9 11c27 3 41 2 71-3 0 0 8 5 19 9-67 29-153-2-99-17M74 230s-15 11 8 13c29 3 52 3 92-4 0 0 6 5 15 8-82 24-173 2-115-17"
      fill="#5382A1" />
    <path d="M144 166c17 19-4 36-4 36s42-22 22-49c-18-26-32-38 44-82 0 0-119 29-62 95"
      fill="#E76F00" />
    <path
      d="M233 295s10 8-10 15c-39 12-163 15-197 0-12-5 11-13 18-14l12-2c-14-9-89 19-38 28 138 22 251-10 215-27M89 190s-63 15-22 21c17 2 51 2 83-1 26-2 52-7 52-7l-16 9c-64 16-187 8-151-9 30-14 54-13 54-13M202 253c64-33 34-66 13-61l-7 2s2-3 6-5c41-14 73 43-14 66l2-2"
      fill="#5382A1" />
    <path d="M162 0s36 36-34 91c-56 45-12 70 0 99-32-30-56-56-40-80 23-35 89-53 74-110"
      fill="#E76F00" />
    <path d="M95 345c62 4 158-3 160-32 0 0-4 11-51 20-53 10-119 9-158 2 0 0 8 7 49 10"
      fill="#5382A1" />
  </symbol>

  <symbol id="javascript" viewBox="0 0 1052 1052">
    <path fill="#f0db4f" d="M0 0h1052v1052H0z" />
    <path
      d="M965.9 801.1c-7.7-48-39-88.3-131.7-125.9-32.2-14.8-68.1-25.399-78.8-49.8-3.8-14.2-4.3-22.2-1.9-30.8 6.9-27.9 40.2-36.6 66.6-28.6 17 5.7 33.1 18.801 42.8 39.7 45.4-29.399 45.3-29.2 77-49.399-11.6-18-17.8-26.301-25.4-34-27.3-30.5-64.5-46.2-124-45-10.3 1.3-20.699 2.699-31 4-29.699 7.5-58 23.1-74.6 44-49.8 56.5-35.6 155.399 25 196.1 59.7 44.8 147.4 55 158.6 96.9 10.9 51.3-37.699 67.899-86 62-35.6-7.4-55.399-25.5-76.8-58.4-39.399 22.8-39.399 22.8-79.899 46.1 9.6 21 19.699 30.5 35.8 48.7 76.2 77.3 266.899 73.5 301.1-43.5 1.399-4.001 10.6-30.801 3.199-72.101zm-394-317.6h-98.4c0 85-.399 169.4-.399 254.4 0 54.1 2.8 103.7-6 118.9-14.4 29.899-51.7 26.2-68.7 20.399-17.3-8.5-26.1-20.6-36.3-37.699-2.8-4.9-4.9-8.7-5.601-9-26.699 16.3-53.3 32.699-80 49 13.301 27.3 32.9 51 58 66.399 37.5 22.5 87.9 29.4 140.601 17.3 34.3-10 63.899-30.699 79.399-62.199 22.4-41.3 17.6-91.3 17.4-146.6.5-90.2 0-180.4 0-270.9z"
      fill="#323330" />
  </symbol>

  <symbol id="typescript" viewBox="0 0 256 256">
    <path
      d="M20 0h216c11.046 0 20 8.954 20 20v216c0 11.046-8.954 20-20 20H20c-11.046 0-20-8.954-20-20V20C0 8.954 8.954 0 20 0Z"
      fill="#3178C6" />
    <path
      d="M150.518 200.475v27.62c4.492 2.302 9.805 4.028 15.938 5.179 6.133 1.151 12.597 1.726 19.393 1.726 6.622 0 12.914-.633 18.874-1.899 5.96-1.266 11.187-3.352 15.678-6.257 4.492-2.906 8.048-6.704 10.669-11.394 2.62-4.689 3.93-10.486 3.93-17.391 0-5.006-.749-9.394-2.246-13.163a30.748 30.748 0 0 0-6.479-10.055c-2.821-2.935-6.205-5.567-10.149-7.898-3.945-2.33-8.394-4.531-13.347-6.602-3.628-1.497-6.881-2.949-9.761-4.359-2.879-1.41-5.327-2.848-7.342-4.316-2.016-1.467-3.571-3.021-4.665-4.661-1.094-1.64-1.641-3.495-1.641-5.567 0-1.899.489-3.61 1.468-5.135s2.362-2.834 4.147-3.927c1.785-1.094 3.973-1.942 6.565-2.547 2.591-.604 5.471-.906 8.638-.906 2.304 0 4.737.173 7.299.518 2.563.345 5.14.877 7.732 1.597a53.669 53.669 0 0 1 7.558 2.719 41.7 41.7 0 0 1 6.781 3.797v-25.807c-4.204-1.611-8.797-2.805-13.778-3.582-4.981-.777-10.697-1.165-17.147-1.165-6.565 0-12.784.705-18.658 2.115-5.874 1.409-11.043 3.61-15.506 6.602-4.463 2.993-7.99 6.805-10.582 11.437-2.591 4.632-3.887 10.17-3.887 16.615 0 8.228 2.375 15.248 7.127 21.06 4.751 5.811 11.963 10.731 21.638 14.759a291.458 291.458 0 0 1 10.625 4.575c3.283 1.496 6.119 3.049 8.509 4.66 2.39 1.611 4.276 3.366 5.658 5.265 1.382 1.899 2.073 4.057 2.073 6.474a9.901 9.901 0 0 1-1.296 4.963c-.863 1.524-2.174 2.848-3.93 3.97-1.756 1.122-3.945 1.999-6.565 2.632-2.62.633-5.687.95-9.2.95-5.989 0-11.92-1.05-17.794-3.151-5.875-2.1-11.317-5.25-16.327-9.451Zm-46.036-68.733H140V109H41v22.742h35.345V233h28.137V131.742Z"
      fill="#FFF" />
  </symbol>

  <symbol id="astro" viewBox="0 0 85 107">
    <path
      d="M27.59 91.136c-4.834-4.418-6.246-13.703-4.232-20.429 3.492 4.241 8.33 5.584 13.342 6.343 7.737 1.17 15.336.732 22.523-2.804.822-.405 1.582-.943 2.48-1.489.675 1.957.85 3.932.615 5.943-.573 4.896-3.01 8.678-6.885 11.545-1.55 1.147-3.19 2.172-4.79 3.253-4.917 3.323-6.247 7.22-4.4 12.888.044.139.084.277.183.614-2.51-1.124-4.344-2.76-5.742-4.911-1.475-2.27-2.177-4.78-2.214-7.498-.019-1.322-.019-2.656-.197-3.96-.434-3.178-1.926-4.601-4.737-4.683-2.884-.084-5.166 1.699-5.771 4.507-.046.216-.113.429-.18.68l.004.001ZM0 69.587s14.314-6.973 28.668-6.973L39.49 29.12c.405-1.62 1.588-2.72 2.924-2.72 1.335 0 2.518 1.1 2.924 2.72L56.16 62.614c17 0 28.668 6.973 28.668 6.973S60.514 3.352 60.467 3.219C59.769 1.261 58.591 0 57.003 0H27.827c-1.588 0-2.718 1.261-3.464 3.22C24.311 3.35 0 69.586 0 69.586Z" />
  </symbol>

  <symbol id="fastapi" viewBox="0 0 256 256">
    <path
      d="M128 0C57.33 0 0 57.33 0 128s57.33 128 128 128 128-57.33 128-128S198.67 0 128 0Zm-6.67 230.605v-80.288H76.699l64.128-124.922v80.288h42.966L121.33 230.605Z"
      fill="#009688" />
  </symbol>

  <symbol id="mysql" viewBox="0 0 256 252">
    <path fill="#00546B"
      d="M236 194c-14 0-25 1-34 5-3 1-7 1-7 4l3 6c2 3 5 8 9 11l11 8 21 10 11 9 6 4-3-6-5-5c-5-7-11-13-18-18-6-3-18-9-20-15h-1l12-3 18-3 8-2v-2l-9-10c-8-8-18-15-28-22l-18-8c-2-1-6-2-7-4l-7-13-15-30-8-20c-18-30-38-48-68-65-6-4-14-5-22-7l-13-1-8-6C34 5 8-9 1 9c-5 11 7 22 11 28l9 13 3 9c3 8 5 17 9 24l6 10c2 2 4 3 5 6-3 4-3 9-4 13-7 20-4 44 5 59 2 4 9 14 18 10 8-3 6-13 8-22l1-4 8 14c5 9 14 18 22 24 4 3 8 8 13 10l-4-4-9-10c-8-10-14-21-20-32l-7-17-3-6c-3 4-7 7-9 12-3 7-3 17-4 26h-1c-6-1-8-7-10-12-5-12-6-32-1-46 1-4 6-15 4-19-1-3-4-5-6-7l-7-12-10-30-9-13c-3-5-7-8-10-14-1-2-2-5 0-7l2-2c2-2 9 0 11 1 6 3 12 5 17 9l8 6h4c6 1 12 0 17 2 9 3 18 7 25 12 23 14 42 35 54 59 3 4 3 8 5 12l12 26c4 8 7 16 12 23 3 4 14 6 18 8l12 4 18 12c2 2 11 7 12 10Z" />
    <path fill="#00546B" d="m58 43-7 1 6 7 4 9v-1c3-1 4-4 4-8l-2-4-5-4Z" />
  </symbol>

  <symbol id="flask" viewBox="0 0 32 32">
    <path
      d="M14.319 9.028c0.35-0.62-1.443-0.835-0.235-0.219 0.112 0.037 0.087 0.262 0.235 0.219zM4.542 3.761c-0.762-0.995 1.432 0.167 0.659-0.875-0.652-0.519-1.278 0.585-0.659 0.875zM6.138 5.011c1.082-0.144-0.275-0.466-0.217-0.013zM5.283 4.806c0.232-0.315-0.407 0.16 0 0zM7.008 6.705c0.672 0.016-0.289-0.902 0.511-0.487-0.131-0.429-0.932-0.509-1.325-0.68-0.22 0.392 0.45 1.172 0.812 1.167zM4.916 6.619c0.575-0.434 1.984 0.257 1.080-0.431-0.087-0.077-1.982 0.522-1.080 0.431zM4.326 7.747c1.007-0.342 2.383-0.726 2.858 0.169-0.484-0.582-0.195-1.155 0.262-0.304 0.645 0.861 0.968-0.391 0.547-0.681 0.479 0.595 1.023 0.875 0.321 0.037 0.762-0.917-1.528 0.121-2.049 0.11-0.25 0.112-2.588 0.596-1.938 0.669zM6.2 10.881c0.246-0.304-0.337-0.081 0 0zM5.613 12.452c-0.060-0.362-0.175 0.192 0 0zM5.116 12.2c0.562-0.037 0.882-0.621-0.109-0.587-1.537-0.159 1.355 0.525-0.197 0.33-0.209 0.137 0.295 0.296 0.306 0.259zM29.116 27.445c0.696 0 2.109-0.216 0.594-0.216-0.237 0.038-1.386 0.030-0.595 0.216zM25.78 25.486c0.075-0.51-0.337 0.046 0 0zM28.395 27.273c0.015-0.444-0.38 0.2 0 0zM2.65 11.165c0.499-0.381-0.589-0.145 0 0zM4.549 12.515c0.306-0.325-0.663-0.132 0 0zM3.906 12.335c0.871-0.534-0.926-0.462 0 0zM10.348 8.28c0.291-0.765 1.132-0.306 0.135-0.154 0.021 0.081-0.030 0.395-0.135 0.154zM9.548 8.285c-0.069-1.517 1.398 0.54-0 0zM6.736 8.718c0.462-0.555 2.618-0.354 1.040-0.054-0.422-0.319-0.747 0.187-1.040 0.054zM6.541 8.848c0.277-0.325 0.080 0.287-0 0zM5.782 9.154c0.040-0.514 1.272 0.272 0.204 0.185zM5.226 9.144c0.437-0.325 0.232 0.182-0 0zM5.167 9.687c0.304-1.117 1.625 0.918 0.497 0.147-0.121-0.095-0.275-0.152-0.443-0.152-0.019 0-0.038 0.001-0.057 0.002l0.002-0zM2.050 11.274c-0.116-0.669-0.1-1.842 1.015-1.445-1.488 0.295 1.030 1.849 0.712 0.622 0.625 0.030 1.225-0.37 0.895 0.237 1.233-0.137 2.087-1.205 3.279-1.056 1.082-0.090 2.082-0.299 3.033-0.615l-0.091 0.026c0.822-0.060 1.612-0.945 1.162-1.468-0.218-0.013-0.473-0.021-0.73-0.021-0.993 0-1.96 0.114-2.888 0.329l0.086-0.017c-1.372 0.285-2.619 0.827-4.005 1.061-1.35 0.181 0.271 0.5-0.115 0.57-0.705 0.245 0.84 0.41-0.091 0.667-0.575-0.11-1.175-0.307-0.928-0.912-1.293 0.166-2.431 0.704-1.408 2.019h0.075zM4.22 12.726c0.069-0.475-0.512 0.094-0 0zM26.941 27.412c0.165-0.49-0.417 0.062 0 0zM24.474 26.133c0.412-0.379-0.525-0.117 0 0zM4.062 13.526c0.647-0.254-1.175-0.525-0.13-0.050zM2.538 12.615c-0.044-0.4-0.237 0.050 0 0zM2.263 12.823c-0.025-0.337-0.18 0.127 0 0zM4.12 14.028c-0.087-0.731-1.050-0.11 0-0zM7.719 16.687c0.152-0.14-0.362-0.104 0 0zM4.463 14.6c-0.15-0.121-0.117 0.152 0 0zM3.946 14.347c0.011-0.312-0.829-0.28 0 0zM3.041 14.119c-0.172-0.968-0.656-0.147-0 0zM6.836 16.754c0.011-0.509-0.396-0.019 0 0zM23.985 27.436c0.64-0.13 2.097 0.325 2.332-0.17-0.775-0.019-2.687-0.547-2.777 0.125l0.17 0.029zM6.378 16.639c-0.009-0.166-0.152 0.062 0 0zM4.933 15.939c0.499-0.169-0.459-0.112 0 0zM16.467 23.725c-0.009-0.501-0.494 0.125 0 0zM5.241 16.65c0.775-0.3-0.83-0.212 0 0zM20.249 26.297c0.27-0.2-0.337-0.025 0 0zM17.435 24.523c-0.050-0.194-0.196 0.037 0 0zM17.093 24.274c-0.135-0.347-0.535-0.008 0 0zM9.994 19.796c0-0.506-0.906-0.205 0 0zM9.174 19.606c-0.332-0.279-0.016-0.040 0 0zM3.771 16.275c0.115-0.479-1.066-2.633-0.557-1.080 0.182 0.325 0.162 0.942 0.557 1.080zM6.715 18.599c0.646 0.145 2.582 1.592 1.44 0.1-0.585-0.172-0.234-1.603-0.831-1.35 0.4 0.669 0.33 0.953-0.512 0.532-1.056-0.516-0.592 0.255-0.387 0.467-0.28 0.065 0.374 0.245 0.291 0.25zM22.891 29.012c0.482-0.322-0.586-0.104 0 0zM21.166 27.865c0.717-0.602-0.759 0.266-0 0zM21.503 28.028c0.881-0.637-0.535-0.122-0.185 0.12zM11.639 22.174c-0.181-0.371-0.28 0.059 0 0zM11.064 21.841c-0.025-0.3-0.364 0.025 0 0zM20.399 27.727c0.689-0.444-0.157-0.375-0.125 0.040zM6.272 18.818c0.204-0.302-0.525-0.039 0 0zM20.625 28.018c0.712-0.61-0.45-0.128 0-0zM19.543 27.593c1.418-0.917-0.582-0.4 0-0zM4.51 18.178c-0.657-0.937-0.409-1.36-1.043-2.124-0.12-0.587-1.087-1.916-0.5-0.507 0.537 0.823 0.697 2.098 1.543 2.632zM19.784 27.853c0.771-0.817-0.747 0.049 0 0zM19.783 28.115c0.004-0.187-0.3 0.082-0 0zM18.333 27.121c0.697-0.585-0.675 0.26-0 0zM11.964 23.185c0.452 0.4 2.077 0.295 0.55 0.050-0.227-0.337-1.438-0.255-0.55-0.050zM7.327 20.39c-0.302-0.502-1.080-0.455 0 0zM6.513 19.855c-0.125-0.491-0.875-0.487 0-0zM18.624 27.462c0.406-0.394 0.016 0.629 0.675-0.096 0.006-0.519-0.021-0.825-0.757-0.195-0.202 0.112-0.292 0.591 0.082 0.291zM17.861 27.141c0.025-0.35-0.241 0.3 0-0zM10.438 22.644c1.762 0.567-0.864-0.695 0-0zM8.988 21.811c0.425 0.316 1.6 0.898 0.605 0.12 0.336-0.39-0.642-0.597-0.317-0.857-0.825-0.505-0.65-0.46-0.072-0.445-0.992-0.442 0.142-0.41 0.087-0.637-0.381-0.075-1.899-0.675-1.005 0.050-0.907-0.462-0.216 0.172-0.49 0.105-0.928-0.252 0.825 0.706-0.147 0.469 0.531 0.421 1.432 1.080 0.225 0.446-0.16 0.229 0.862 0.575 1.115 0.75zM11.726 23.628c0.769 0.2 0.765-0.119 0.069-0.212-0.375-0.35-1.557-0.719-0.5-0.044 0.071 0.177 0.294 0.174 0.43 0.257zM10.339 22.928c-0.16-0.139 0.020 0.087-0-0zM11.013 9.666c0.117-0.144 0.025 0.174-0-0zM10.61 12.069c-0.27-0.475 0.34-2.091 0.407-1.087-0.284 0.781-0.081 1.218 0.116 0.17 0.366-0.825-0.079 1.628-0.525 0.918zM10.218 12.706c-0.066-0.4 0.225 0.505 0 0zM10.459 13.343c-0.393-0.97 0.365 0.512-0-0zM10.623 13.706c-0.003-0.209 0.054 0.302-0-0zM7.795 12.132c0.257-0.542 0.475 0.604-0-0zM6.793 11.535c0.161-0.069 0.085 0.215-0-0zM11.076 14.879c0.146-1.18 0.129 0.691-0-0zM7.234 12.625c0.211-0.31-0.562-1.4 0.111-0.391 0.29 0.231 0.84 0.387 0.354 0.484 0.762 0.674-0.187 0.182-0.465-0.092zM11.296 15.203c0.055-1.037 0.31-0.619 0.002 0.147zM6.848 12.985c0.519-0.11 2.147 0.911 0.65 0.292-0.165-0.185-0.52-0.1-0.65-0.293zM11.586 16.261c0.162-0.577 0.012 0.381 0 0zM9.484 14.913c-0.082-1.012 0.184 0.167 0 0zM6.715 13.444c-0.871-1.203 2.533 1.216 0.559 0.305-0.206-0.054-0.455-0.075-0.559-0.305zM11.521 16.702c0.067-0.275 0.009 0.322 0 0zM11.771 16.95c0.060-0.641 0.124 0.437-0 0zM10.334 16.1c-0.587-0.352-0.154-2.479 0.046-1.025 0.571-0.185-0.031 0.75 0.394 0.742-0.066 0.591-0.257 0.804-0.437 0.282zM6.448 13.841c-1.357-1.207 1.706 0.632 0.221 0.225zM7.319 14.674c-0.41-0.771 0.5 0.322 0 0zM6.881 14.533c0.271-0.269 0.144 0.265 0 0zM6.169 14.552c-0.467-0.462-0.805-0.891 0.021-0.287 0.319 0.012-0.707-0.972 0.075-0.312 0.825 0.15 0.409 1.352-0.096 0.6zM7.524 15.601c0.27-0.569 0.457 0.792 0 0zM6.961 15.408c0.050-0.754 0.287 0.516 0 0zM8.215 16.271c-0.262-0.448-0.417-0.987-0.417-1.562 0-0.001 0-0.002 0-0.003v0c0.095 0.472 1.005 2.033 0.446 0.647-0.617-1.162 0.737 0.377 0.877 0.667 0.062 0.287-0.381-0.079-0.080 0.597-0.55-0.771-0.325 0.425-0.826-0.347zM12.271 18.977c-0.44-0.987 0.312-0.54 0.097 0.162zM9.919 18.222c-0.194-0.347 0.404 0.325 0 0zM12.658 20.128c0.168-0.63 0.198 0.53 0 0zM8.78 18.026c0.274-0.075 0.135 0.467 0 0zM13.653 21.39c-0.465-0.9 0.587 0.255 0 0zM14.056 21.931c-0.012-0.585 0.134 0.45 0 0zM18.687 25.45c0.231-0.014 0.008 0.175 0 0zM14.64 22.879c-0.37-0.387-0.466-1.112-0.066-0.481 0.205 0.082 0.656 1.183 0.066 0.481zM15.883 26.388c0.966-0.577 0.647 1.352 1.638 0.162 0.977-0.712-0.843 0.883 0.362 0.129 0.87-0.584 2.157 0.275 2.969 0.556 0.585-0.029 1.153 0.506 1.753 0.181 1.153-0.312-2.257-0.462-1.362-1.012-0.138 0.031-0.297 0.049-0.46 0.049-0.805 0-1.509-0.435-1.89-1.082l-0.006-0.010c-1.299-0.215-2.402-0.92-3.136-1.914l-0.009-0.013c-0.24-0.394 0.35 0.055-0.207-0.587-0.606-0.61-1.123-1.311-1.527-2.079l-0.023-0.047c-0.571-0.305-0.637-1.203-0.696-0.030 0.005-0.741-0.691-1.24-0.86-1.032-0.002-0.714 0.744-0.356 0.22-0.884-0.112-0.74-0.482-1.512-0.594-2.346-0.172-0.402-0.025-1.263-0.591-0.352-0.206 0.962-0.069-1.183 0.252-0.475 0.421-0.725-0.15-0.637-0.175-0.537 0.275-0.61 0.175-1.475-0.071-1.145 0.146-0.646 0.231-2.377-0.219-2.069 0.272-0.675 0.517-3.090-0.667-2.169-0.62 0.025-1.202 0.159-1.736 0.382l0.033-0.012c1.232 0.679-0.125 0.245-0.625 0.137-0.065 0.627-0.562 0.356-1.182 0.362 0.991 0.122-0.482 1.012-1.051 0.667-0.737 0.352 0.637 1.233 0.015 1.506 0.075 0.41-1.131-0.15-1.037 0.8-0.716-0.301-0.097 1.125 0.261 0.642 1.218 0.33 0.857 1.082 0.887 1.796-0.197 0.416-0.98-0.978-0.175-0.914-0.634-1.033-0.701-0.375-1.23 0.106-0.125 0.035 1.348 0.684 0.425 1.003 0.812 0.125 0.835 0.837 1 1.287 0.487 0.509 0.387-0.562 0.973 0.050-0.37-0.545-1.958-1.535-0.68-1.217-0.006-0.55-0.231-0.991 0.161-0.98 0.387-0.702-0.406 1.733 0.469 0.84 0.241-0.106 0.3-0.704 0.737 0.056 0.631 0.622 0.227 1.072-0.664 0.504 0.159 0.541 1.192 0.734 0.998 1.581 0.206 0.744 0.494 0.47 0.745 0.427 0.197 0.722 0.309 0.191 0.319-0.154 0.9 0.194 0.69 0.725 0.972 1.1 0.621 0.28-0.89-1.902 0.177-0.657 1.122 1.012 0.421 1.437-0.587 1.275 0.637-0.051 0.844 0.862 1.641 0.83 0.727 0.346 1.218 1.675-0.034 1.121-0.435-0.391-1.974-0.875-0.716-0.13 1.282 0.525 2.335 1.039 3.35 1.611l-0.15-0.077c0.8 0.572 1.147 1.227 1.45 1.357-0.672 0.321-2.028-0.257-1.021-0.435-0.629-0.114-1.335-0.431-0.734 0.35 0.512 0.429 1.812 0.382 2.046 0.431-0.199 0.435-0.537 0.47 0.008 0.504-0.607 0.325 0.195 0.375 0.251 0.56zM12.289 24.179c1.033 0.132-1.231-0.704-0.226-0.075zM15.045 26.050c0.897-0.356-0.875-0.175 0 0zM9.746 22.754c0.575-0.062-0.925-0.389 0 0zM12.877 24.744c0.075-0.319-0.66-0.096 0 0zM17.456 27.709c-0.012-0.246-0.229 0.094 0 0zM13.25 25.129c-0.142-0.162-0.068 0.035 0 0zM6.493 20.836c-0.096-0.371-0.842-0.667 0 0zM9.067 22.501c0.775-0.046-1.060-0.341 0 0zM11.239 24.068c-0.080-0.239-0.42-0.010 0 0zM17.025 27.637c0.035-0.454-0.441 0.337 0 0zM8.94 22.657c-0.052-0.25-0.332 0.023 0 0zM14.743 26.356c1.35 0.012-1.218-0.184 0 0zM12.277 24.931c1.425 0.404-1.197-0.9-0.351-0.147l0.187 0.085 0.162 0.062zM13.507 25.91c0.241-0.412-1.018-0.237 0 0zM9.458 23.438c0.582 0.447 2.349 0.057 0.892-0.266-0.662-0.354-2.158-0.595-1.14 0.212zM12.687 25.653c0.537-0.202-0.87-0.204 0 0zM11.48 24.912c0.375-0.262-0.776-0.2 0 0zM10.043 24.075c-0.050-0.209-0.77-0.231 0 0zM14.943 27.892c0.496 0.312 2.899 0.687 1.393 0.129-0.25 0.052-2.787-0.717-1.395-0.129zM11.856 25.965c-0.017-0.207-0.22 0.094 0 0zM11.239 25.657c0.609-0.394-0.787-0.005 0 0zM13.947 27.548c0.239-0.352-0.762-0.134 0 0zM12.538 26.761c0.39-0.375-0.605-0.235 0 0zM11.714 26.417c-0.067-0.331-0.3 0.185 0 0zM11.056 26.177c0.269-0.12-0.387-0.15 0 0zM6.115 21.807c0.041-0.182 0.221 0.396 0 0zM9.606 25.64c1.212 0.449-0.005-0.852-0.562-0.777-0.245-0.426-0.938-0.696-0.45-0.925-0.88 0.305-0.921-1.162-1.337-0.953-0.93-0.294-0.362-1.337-1.47-1.974-0.101-0.675-1.102-1.26-1.422-2.277-0.141-0.52-1.131-2.016-0.522-0.625 0.648 1.386 1.378 2.579 2.221 3.68l-0.034-0.047c0.545 1.179 1.346 2.158 2.336 2.898l0.020 0.014c0.362 0.348 0.71 0.879 1.221 0.987zM11.985 27.322c1.11 0.571 2.398 1.016 3.753 1.268l0.088 0.014c1.303 0.299 2.799 0.47 4.336 0.47 0.798 0 1.586-0.046 2.36-0.136l-0.094 0.009c-0.987-0.446-2.009 0.175-2.993-0.319-0.35 0.040-0.756 0.062-1.167 0.062-0.879 0-1.734-0.103-2.553-0.298l0.075 0.015c-1.631-0.594-2.987-1.206-4.292-1.902l0.179 0.087c-1.596-0.582 0.825 0.747 1.256 0.856 0.997 0.566-1.096-0.291-1.392-0.526-0.835-0.469-0.942-0.371-0.082 0.105 0.174 0.1 0.345 0.207 0.525 0.294zM9.967 26.447c-1.228-0.845-2.28-1.828-3.171-2.945l-0.023-0.029c-1.676-2.057-3.041-4.451-3.971-7.051l-0.053-0.168c-0.557-1.693-0.75-3.509-1.467-5.136-0.145-0.266-0.23-0.583-0.23-0.92 0-0.972 0.711-1.779 1.641-1.928l0.011-0.001c0.575-0.109 1.59-0.652 0.366-0.264-1.097 0.805-1.203-0.731-0.079-0.827 0.489-0.005 0.884-0.402 0.884-0.892 0-0.147-0.036-0.286-0.099-0.409l0.002 0.005c-0.825-0.537 1.999-1.128 0.579-1.929-1.478-1.598 2.071-1.904 1.196-0.092-0.209 1.393 2.479-0.256 1.856 1.353 0.634 0.774 2.374 0.175 2.331 1.261 0.925 0.062 1.241 0.84 2.108 0.9 0.9 0.406 2.527 0.725 2.832 1.737-0.891 0.707-2.954-1.456-3.053 0.497 0.023 3.075 0.48 6.034 1.312 8.832l-0.057-0.225c0.67 1.664 1.62 3.085 2.804 4.271l-0-0c1.079 1.202 2.376 2.182 3.834 2.884l0.074 0.032c1.16 0.548 2.508 0.98 3.918 1.228l0.097 0.014c0.56-0.429 1.55-2.021 2.422-1.35 0.041 0.755-1.735 1.578-0.084 1.495 0.97-0.292 1.642 0.75 2.441-0.19 0.735 0.871 3.057-0.557 2.533 1.225-0.707 0.455-1.739 0.18-2.448 0.807-1.168-0.584-2.099 0.522-3.393 0.382-1.271 0.231-2.734 0.363-4.228 0.363-0.044 0-0.089-0-0.133-0l0.007 0c-2.548-0.045-4.986-0.444-7.29-1.149l0.187 0.049c-1.394-0.471-2.603-1.091-3.7-1.86l0.046 0.031z" />
  </symbol>

  <symbol id="spring" viewBox="0 0 64 64">
    <path
      d="M58.2 3.365a29.503 29.503 0 0 1-3.419 6.064A32.094 32.094 0 1 0 9.965 55.372l1.186 1.047a32.08 32.08 0 0 0 52.67-22.253c.875-8.17-1.524-18.51-5.62-30.8zM14.53 55.558a2.744 2.744 0 1 1-.404-3.857 2.744 2.744 0 0 1 .404 3.857zm43.538-9.61c-7.92 10.55-24.83 6.99-35.672 7.502 0 0-1.922.113-3.857.43 0 0 .73-.31 1.663-.663 7.614-2.65 11.213-3.16 15.838-5.54 8.708-4.427 17.322-14.122 19.112-24.2-3.313 9.695-13.373 18.032-22.53 21.418-6.276 2.313-17.614 4.566-17.614 4.566l-.457-.245c-7.714-3.75-7.952-20.457 6.077-25.845 6.143-2.366 12.02-1.067 18.654-2.65 7.084-1.683 15.28-6.99 18.615-13.916 3.73 11.08 8.224 28.422.166 39.15z"
      fill="#68bd45" />
  </symbol>

  <symbol id="css" viewBox="0 0 1000 1000">
    <path fill="#639"
      d="M0 0h840a160 160 0 0 1 160 160v680a160 160 0 0 1-160 160H160A160 160 0 0 1 0 840V0Z" />
    <path fill="#fff"
      d="M816.54 919.9c-32.39 0-57.16-9.42-74.5-28.35-17.15-19.03-26.08-46.18-26.88-81.64h69.8c.4 31.36 11.42 47.08 33.08 47.08 11.04 0 18.86-3.5 23.37-10.42 4.41-6.9 6.72-17.93 6.72-33.05 0-12.02-3.01-22.04-8.83-29.95a73.2 73.2 0 0 0-29.48-21.14L783.95 750c-23.06-11.02-39.81-24.04-50.14-39.27-10.03-15.13-15.04-36.36-15.04-63.5 0-30.36 8.83-55 26.37-73.94 18.05-18.93 42.62-28.34 74-28.34 30.3 0 53.76 9.31 70.3 27.84 16.85 18.64 25.67 45.28 26.38 80.14h-67.19c.4-11.4-1.9-22.72-6.72-33.06-3.8-7.6-11.23-11.41-22.26-11.41-19.65 0-29.48 11.71-29.48 35.05 0 11.83 2.4 21.04 7.22 28.05A65.18 65.18 0 0 0 822.76 689l24.77 10.92c25.57 11.72 44.02 26.05 55.35 43.38 11.43 17.23 17.05 40.27 17.05 69.12 0 34.56-9.03 61.1-27.38 79.63-18.25 18.53-43.62 27.85-76 27.85Zm-225.42 0c-32.4 0-57.16-9.42-74.51-28.35-17.15-19.03-26.07-46.18-26.87-81.64h69.79c.4 31.36 11.43 47.08 33.1 47.08 11.02 0 18.84-3.5 23.25-10.42 4.52-6.9 6.72-17.93 6.72-33.05 0-12.02-2.9-22.04-8.72-29.95a73.2 73.2 0 0 0-29.48-21.14L558.53 750c-23.07-11.02-39.81-24.04-50.14-39.27-10.03-15.13-15.04-36.36-15.04-63.5 0-30.36 8.82-55 26.37-73.94 18.05-18.93 42.62-28.34 74-28.34 30.29 0 53.75 9.31 70.2 27.84 17.05 18.64 25.77 45.28 26.47 80.14h-67.18c.4-11.4-1.9-22.72-6.72-33.06-3.81-7.6-11.23-11.41-22.26-11.41-19.66 0-29.49 11.71-29.49 35.05 0 11.83 2.41 21.04 7.22 28.05A65.18 65.18 0 0 0 597.33 689l24.77 10.92c25.57 11.72 44.02 26.05 55.36 43.38 11.33 17.23 17.04 40.27 17.04 69.12 0 34.56-9.12 61.1-27.37 79.63-18.25 18.53-43.62 27.85-76.01 27.85Zm-234.75 0c-31.7 0-56.86-8.62-75.51-25.85-18.65-17.12-27.88-42.87-27.88-76.93V648.83c0-33.85 9.83-59.5 29.48-77.13 19.96-17.43 46.13-26.24 78.52-26.24 31.39 0 56.15 9.01 74.5 26.84 18.56 17.93 27.88 44.58 27.88 80.14v13.32h-73.9v-12.92c0-13.72-3.01-23.84-8.83-30.45a26.46 26.46 0 0 0-21.66-10.32c-12.03 0-20.55 4.1-25.37 12.42a79.04 79.04 0 0 0-6.72 36.66v146.26c0 30.55 10.74 46.08 32.1 46.38 10.02 0 17.54-3.61 22.76-10.82a51.74 51.74 0 0 0 7.72-30.46V801.6h73.9v11.42c0 23.74-4.61 43.57-13.94 59.4a88.8 88.8 0 0 1-38.2 35.66 121.46 121.46 0 0 1-54.85 11.82Z" />
  </symbol>

  <symbol id="tailwind" viewBox="0 0 54 33">
    <g clip-path="url(#tailwindcss__a)">
      <path fill="#38bdf8" fill-rule="evenodd"
        d="M27 0c-7.2 0-11.7 3.6-13.5 10.8 2.7-3.6 5.85-4.95 9.45-4.05 2.054.513 3.522 2.004 5.147 3.653C30.744 13.09 33.808 16.2 40.5 16.2c7.2 0 11.7-3.6 13.5-10.8-2.7 3.6-5.85 4.95-9.45 4.05-2.054-.513-3.522-2.004-5.147-3.653C36.756 3.11 33.692 0 27 0zM13.5 16.2C6.3 16.2 1.8 19.8 0 27c2.7-3.6 5.85-4.95 9.45-4.05 2.054.514 3.522 2.004 5.147 3.653C17.244 29.29 20.308 32.4 27 32.4c7.2 0 11.7-3.6 13.5-10.8-2.7 3.6-5.85 4.95-9.45 4.05-2.054-.513-3.522-2.004-5.147-3.653C23.256 19.31 20.192 16.2 13.5 16.2z"
        clip-rule="evenodd" />
    </g>
    <defs>
      <clipPath id="tailwindcss__a">
        <path fill="#fff" d="M0 0h54v32.4H0z" />
      </clipPath>
    </defs>
  </symbol>

  <symbol id="python" viewBox="16 16 32 32">
    <path fill="#376f9f"
      d="M31.885 16c-8.124 0-7.617 3.523-7.617 3.523l.01 3.65h7.752v1.095H21.197S16 23.678 16 31.876c0 8.196 4.537 7.906 4.537 7.906h2.708v-3.804s-.146-4.537 4.465-4.537h7.688s4.32.07 4.32-4.175v-7.019S40.374 16 31.885 16zm-4.275 2.454a1.394 1.394 0 1 1 0 2.79 1.393 1.393 0 0 1-1.395-1.395c0-.771.624-1.395 1.395-1.395z" />
    <path fill="#ffd040"
      d="M32.115 47.833c8.124 0 7.617-3.523 7.617-3.523l-.01-3.65H31.97v-1.095h10.832S48 40.155 48 31.958c0-8.197-4.537-7.906-4.537-7.906h-2.708v3.803s.146 4.537-4.465 4.537h-7.688s-4.32-.07-4.32 4.175v7.019s-.656 4.247 7.833 4.247zm4.275-2.454a1.393 1.393 0 0 1-1.395-1.395 1.394 1.394 0 1 1 1.395 1.395z" />
  </symbol>

  <symbol id="html" viewBox="0 0 452 520">
    <path fill="#e34f26" d="M41 460L0 0h451l-41 460-185 52" />
    <path fill="#ef652a" d="M226 472l149-41 35-394H226" />
    <path fill="#ecedee"
      d="M226 208h-75l-5-58h80V94H84l15 171h127zm0 147l-64-17-4-45h-56l7 89 117 32z" />
    <path fill="#fff" d="M226 265h69l-7 73-62 17v59l115-32 16-174H226zm0-171v56h136l5-56z" />
  </symbol>

  <symbol id="git" viewBox="0 0 256 256">
    <path
      d="M251.17 116.6 139.4 4.82a16.49 16.49 0 0 0-23.31 0l-23.21 23.2 29.44 29.45a19.57 19.57 0 0 1 24.8 24.96l28.37 28.38a19.61 19.61 0 1 1-11.75 11.06L137.28 95.4v69.64a19.62 19.62 0 1 1-16.13-.57V94.2a19.61 19.61 0 0 1-10.65-25.73L81.46 39.44 4.83 116.08a16.49 16.49 0 0 0 0 23.32L116.6 251.17a16.49 16.49 0 0 0 23.32 0l111.25-111.25a16.5 16.5 0 0 0 0-23.33"
      fill="#DE4C36" />
  </symbol>

  <symbol id="react" viewBox="0 0 570 520">
    <g fill="none" fill-rule="evenodd">
      <g fill="#087EA4" fill-rule="nonzero">
        <path
          d="M285.5,201 C255.400481,201 231,225.400481 231,255.5 C231,285.599519 255.400481,310 285.5,310 C315.599519,310 340,285.599519 340,255.5 C340,225.400481 315.599519,201 285.5,201"
          id="react_light__Path" />
        <path
          d="M568.959856,255.99437 C568.959856,213.207656 529.337802,175.68144 466.251623,150.985214 C467.094645,145.423543 467.85738,139.922107 468.399323,134.521063 C474.621631,73.0415145 459.808523,28.6686204 426.709856,9.5541429 C389.677085,-11.8291748 337.36955,3.69129898 284.479928,46.0162134 C231.590306,3.69129898 179.282771,-11.8291748 142.25,9.5541429 C109.151333,28.6686204 94.3382249,73.0415145 100.560533,134.521063 C101.102476,139.922107 101.845139,145.443621 102.708233,151.02537 C97.4493791,153.033193 92.2908847,155.161486 87.3331099,157.39017 C31.0111824,182.708821 0,217.765415 0,255.99437 C0,298.781084 39.6220545,336.307301 102.708233,361.003527 C101.845139,366.565197 101.102476,372.066633 100.560533,377.467678 C94.3382249,438.947226 109.151333,483.32012 142.25,502.434597 C153.629683,508.887578 166.52439,512.186771 179.603923,511.991836 C210.956328,511.991836 247.567589,495.487529 284.479928,465.972527 C321.372196,495.487529 358.003528,511.991836 389.396077,511.991836 C402.475265,512.183856 415.36922,508.884856 426.75,502.434597 C459.848667,483.32012 474.661775,438.947226 468.439467,377.467678 C467.897524,372.066633 467.134789,366.565197 466.291767,361.003527 C529.377946,336.347457 569,298.761006 569,255.99437 M389.155214,27.1025182 C397.565154,26.899606 405.877839,28.9368502 413.241569,33.0055186 C436.223966,46.2772304 446.540955,82.2775015 441.522965,131.770345 C441.181741,135.143488 440.780302,138.556788 440.298575,141.990165 C414.066922,134.08804 387.205771,128.452154 360.010724,125.144528 C343.525021,103.224055 325.192524,82.7564475 305.214266,63.9661533 C336.586743,39.7116483 366.032313,27.1025182 389.135142,27.1025182 M378.356498,310.205598 C368.204912,327.830733 357.150626,344.919965 345.237759,361.405091 C325.045049,363.479997 304.758818,364.51205 284.459856,364.497299 C264.167589,364.51136 243.888075,363.479308 223.702025,361.405091 C211.820914,344.919381 200.80007,327.83006 190.683646,310.205598 C180.532593,292.629285 171.306974,274.534187 163.044553,255.99437 C171.306974,237.454554 180.532593,219.359455 190.683646,201.783142 C200.784121,184.229367 211.770999,167.201087 223.601665,150.764353 C243.824636,148.63809 264.145559,147.579168 284.479928,147.591877 C304.772146,147.579725 325.051559,148.611772 345.237759,150.68404 C357.109048,167.14607 368.136094,184.201112 378.27621,201.783142 C388.419418,219.363718 397.644825,237.458403 405.915303,255.99437 C397.644825,274.530337 388.419418,292.625022 378.27621,310.205598 M419.724813,290.127366 C426.09516,307.503536 431.324985,325.277083 435.380944,343.334682 C417.779633,348.823635 399.836793,353.149774 381.668372,356.285142 C388.573127,345.871232 395.263781,335.035679 401.740334,323.778483 C408.143291,312.655143 414.144807,301.431411 419.805101,290.207679 M246.363271,390.377981 C258.848032,391.140954 271.593728,391.582675 284.5,391.582675 C297.406272,391.582675 310.232256,391.140954 322.737089,390.377981 C310.880643,404.583418 298.10766,417.997563 284.5,430.534446 C270.921643,417.999548 258.18192,404.585125 246.363271,390.377981 Z M187.311556,356.244986 C169.137286,353.123646 151.187726,348.810918 133.578912,343.334682 C137.618549,325.305649 142.828222,307.559058 149.174827,290.207679 C154.754833,301.431411 160.736278,312.655143 167.239594,323.778483 C173.74291,334.901824 180.467017,345.864539 187.311556,356.285142 M149.174827,221.760984 C142.850954,204.473938 137.654787,186.794745 133.619056,168.834762 C151.18418,163.352378 169.085653,159.013101 187.211197,155.844146 C180.346585,166.224592 173.622478,176.986525 167.139234,188.210257 C160.65599,199.433989 154.734761,210.517173 149.074467,221.760984 M322.616657,121.590681 C310.131896,120.827708 297.3862,120.385987 284.379568,120.385987 C271.479987,120.385987 258.767744,120.787552 246.242839,121.590681 C258.061488,107.383537 270.801211,93.9691137 284.379568,81.4342157 C297.99241,93.9658277 310.765727,107.380324 322.616657,121.590681 Z M401.70019,188.210257 C395.196875,176.939676 388.472767,166.09743 381.527868,155.68352 C399.744224,158.819049 417.734224,163.151949 435.380944,168.654058 C431.331963,186.680673 426.122466,204.426664 419.785029,221.781062 C414.205023,210.55733 408.203506,199.333598 401.720262,188.230335 M127.517179,131.790423 C122.438973,82.3176579 132.816178,46.2973086 155.778503,33.0255968 C163.144699,28.9632474 171.455651,26.9264282 179.864858,27.1225964 C202.967687,27.1225964 232.413257,39.7317265 263.785734,63.9862316 C243.794133,82.7898734 225.448298,103.270812 208.949132,125.204763 C181.761691,128.528025 154.90355,134.14313 128.661281,141.990165 C128.199626,138.556788 127.778115,135.163566 127.456963,131.790423 M98.4529773,182.106474 C101.54406,180.767925 104.695358,179.429376 107.906872,178.090828 C114.220532,204.735668 122.781793,230.7969 133.498624,255.99437 C122.761529,281.241316 114.193296,307.357063 107.8868,334.058539 C56.7434387,313.076786 27.0971497,284.003505 27.0971497,255.99437 C27.0971497,229.450947 53.1907013,202.526037 98.4529773,182.106474 Z M155.778503,478.963143 C132.816178,465.691432 122.438973,429.671082 127.517179,380.198317 C127.838331,376.825174 128.259842,373.431953 128.721497,369.978497 C154.953686,377.878517 181.814655,383.514365 209.009348,386.824134 C225.500295,408.752719 243.832321,429.233234 263.805806,448.042665 C220.069,481.834331 180.105722,492.97775 155.838719,478.963143 M441.502893,380.198317 C446.520883,429.691161 436.203894,465.691432 413.221497,478.963143 C388.974566,493.017906 348.991216,481.834331 305.274481,448.042665 C325.241364,429.232737 343.566681,408.752215 360.050868,386.824134 C387.245915,383.516508 414.107066,377.880622 440.338719,369.978497 C440.820446,373.431953 441.221885,376.825174 441.563109,380.198317 M461.193488,334.018382 C454.869166,307.332523 446.294494,281.231049 435.561592,255.99437 C446.289797,230.744081 454.857778,204.629101 461.173416,177.930202 C512.216417,198.911955 541.942994,227.985236 541.942994,255.99437 C541.942994,284.003505 512.296705,313.076786 461.153344,334.058539"
          id="react_light__Shape" />
      </g>
    </g>
  </symbol>

  <symbol id="link" viewBox="0 0 570 520">
    <g>
      <path
        d="M295.407,368.363l-69.589,69.589c-42.453,41.318-110.362,40.398-151.68-2.054c-40.521-41.633-40.53-107.959-0.021-149.604   l69.589-69.653c8.33-8.336,8.325-21.846-0.011-30.176c-8.336-8.33-21.846-8.325-30.176,0.011l-69.568,69.653   c-58.539,58.569-58.515,153.503,0.053,212.043s153.503,58.515,212.043-0.053l69.589-69.589c8.185-8.475,7.95-21.98-0.524-30.165   c-8.267-7.985-21.374-7.985-29.641,0H295.407z" />
      <path
        d="M468.186,43.969C440.146,15.736,401.971-0.098,362.18,0.001l0,0c-39.769-0.106-77.93,15.695-105.984,43.883L186.5,113.494   c-8.336,8.33-8.341,21.84-0.011,30.176c8.33,8.336,21.84,8.341,30.176,0.011l69.653-69.589   c20.061-20.182,47.363-31.497,75.819-31.424l0,0c59.24,0.02,107.248,48.059,107.228,107.299   c-0.009,28.432-11.307,55.698-31.41,75.805l-69.589,69.589c-8.336,8.336-8.336,21.851,0,30.187c8.336,8.336,21.851,8.336,30.187,0   l0,0l69.589-69.547C526.599,197.417,526.618,102.575,468.186,43.969z" />
      <path
        d="M304.964,176.918l-128,128c-8.475,8.185-8.709,21.691-0.524,30.165s21.691,8.709,30.165,0.524   c0.178-0.172,0.352-0.346,0.524-0.524l128-128c8.185-8.475,7.95-21.98-0.525-30.165   C326.338,168.934,313.232,168.934,304.964,176.918L304.964,176.918z" />
    </g>
  </symbol>

  <symbol id="dot" viewBox="0 0 24 24" width="" height="">
    <ellipse cx="12" cy="12" rx="2.925" ry="2.914" />
  </symbol>
</svg>